<?xml version="1.0" encoding="UTF-8" standalone="no"?>
<!-- Generator: Adobe Illustrator 17.0.1, SVG Export Plug-In . SVG Version: 6.00 Build 0)  -->

<svg
   version="1.1"
   x="0px"
   y="0px"
   width="86px"
   height="86px"
   viewBox="0 0 86 86"
   enable-background="new 0 0 86 86"
   xml:space="preserve"
   id="svg8165"
   sodipodi:docname="harbour-trollbridge.svg"
   inkscape:version="1.2.1 (9c6d41e410, 2022-07-14)"
   xmlns:inkscape="http://www.inkscape.org/namespaces/inkscape"
   xmlns:sodipodi="http://sodipodi.sourceforge.net/DTD/sodipodi-0.dtd"
   xmlns="http://www.w3.org/2000/svg"
   xmlns:svg="http://www.w3.org/2000/svg"><defs
   id="defs8169" /><sodipodi:namedview
   id="namedview8167"
   pagecolor="#ffffff"
   bordercolor="#666666"
   borderopacity="1.0"
   inkscape:showpageshadow="2"
   inkscape:pageopacity="0.0"
   inkscape:pagecheckerboard="0"
   inkscape:deskcolor="#d1d1d1"
   showgrid="false"
   inkscape:zoom="4.338688"
   inkscape:cx="56.929653"
   inkscape:cy="100.14548"
   inkscape:window-width="1350"
   inkscape:window-height="1160"
   inkscape:window-x="2100"
   inkscape:window-y="27"
   inkscape:window-maximized="0"
   inkscape:current-layer="_138079608" />
<g
   id="Layer_2"
   display="none">
</g>
<g
   id="Layer_1">
	
		<linearGradient
   id="SVGID_1_"
   gradientUnits="userSpaceOnUse"
   x1="746.1491"
   y1="91.0476"
   x2="832.4243"
   y2="4.6217"
   gradientTransform="matrix(-0.9756,0,0,-0.9739,813.0281,89.5862)">
	<stop
   offset="0"
   style="stop-color:#fcf0a2;stop-opacity:1;"
   id="stop8136" />
		<stop
   offset="0.9946"
   style="stop-color:#ff7500;stop-opacity:1;"
   id="stop8134" />
		</linearGradient>
	<path
   fill="url(#SVGID_1_)"
   d="M 1.917,85.5 H 43 C 66.473,85.5 85.5,66.471 85.5,43 V 1.917 C 85.5,1.134 84.866,0.5 84.083,0.5 H 43 C 19.527,0.5 0.5,19.529 0.5,43 v 41.083 c 0,0.783 0.634,1.417 1.417,1.417 z"
   id="path8139"
   style="fill:url(#SVGID_1_)" />
	
		<linearGradient
   id="SVGID_2_"
   gradientUnits="userSpaceOnUse"
   x1="312.5327"
   y1="9.6047"
   x2="249.6547"
   y2="72.4827"
   gradientTransform="translate(-238.1,1.95)">
		<stop
   offset="0.0054"
   style="stop-color:#51EAEE"
   id="stop8141" />
		<stop
   offset="1"
   style="stop-color:#00B4E6"
   id="stop8143" />
	</linearGradient>
	<path
   fill="url(#SVGID_2_)"
   d="m 75.025,12.977 c 0,-1.105 -0.895,-2.002 -2,-2.002 0,0 -29.435,0 -30.025,0 -17.687,0 -32.025,14.299 -32.025,32 0,0.345 0,30.048 0,30.048 0,1.105 0.895,2.002 2,2.002 0,0 29.412,0 30.025,0 17.686,0 32.025,-14.349 32.025,-32.05 0,-1.472 0,-29.998 0,-29.998 z"
   id="path8146"
   style="fill:url(#SVGID_2_)" />
	<g
   id="g8155"
   transform="rotate(90,43,43)"
   style="fill:#ffffff;fill-opacity:1">
		<linearGradient
   id="SVGID_3_"
   gradientUnits="userSpaceOnUse"
   x1="74.432701"
   y1="74.445297"
   x2="11.5547"
   y2="11.5673">
			<stop
   offset="0.0054"
   style="stop-color:#1E87FF"
   id="stop8148" />
			<stop
   offset="1"
   style="stop-color:#fcba03;stop-opacity:1;"
   id="stop8150" />
		</linearGradient>
		<path
   fill="url(#SVGID_3_)"
   d="m 12.977,10.975 c -1.105,0 -2.002,0.895 -2.002,2 0,0 0,29.435 0,30.025 0,17.687 14.299,32.025 32,32.025 0.345,0 30.048,0 30.048,0 1.105,0 2.002,-0.895 2.002,-2 0,0 0,-29.412 0,-30.025 0,-17.686 -14.349,-32.025 -32.05,-32.025 -1.472,0 -29.998,0 -29.998,0 z"
   id="path8153"
   style="fill:#ffffff;fill-opacity:1" />
	</g>
	<linearGradient
   id="SVGID_4_"
   gradientUnits="userSpaceOnUse"
   x1="19.5861"
   y1="20.0223"
   x2="58.9658"
   y2="59.402">
		<stop
   offset="0"
   style="stop-color:#FFFFFF"
   id="stop8157" />
		<stop
   offset="1"
   style="stop-color:#F3EDD1"
   id="stop8159" />
	</linearGradient>
	
<g
   id="_138079608"
   transform="matrix(0.50697457,0,0,0.50697457,-44.703017,-32.26545)"
   style="stroke-width:6.58974">
   
   
   <polygon
   id="_137713304"
   fill="#f6d900"
   fill-rule="nonzero"
   points="0.664582,43.5034 0.664582,44.8797 117.527,47.8897 234.392,44.8797 234.392,43.5034 117.527,40.4892 "
   style="stroke-width:71.7557"
   transform="matrix(0.42792274,-0.42792274,0.42792274,0.42792274,110.2783,189.16815)" />
   <g
   id="g2698"
   style="stroke-width:10.889"
   transform="matrix(0.42792274,-0.42792274,0.42792274,0.42792274,110.2783,189.16815)">
    <polygon
   id="_137792048"
   fill="#343e8b"
   fill-rule="nonzero"
   points="52.2726,25.5023 66.3031,25.5023 66.3031,31.5312 41.1139,31.5312 41.1139,4.75433 52.2726,4.75433 "
   style="stroke-width:71.7557" />
    <path
   id="_137791288"
   fill="#343e8b"
   fill-rule="nonzero"
   d="m 182.528,32.6054 c -8.69513,0 -16.0097,-2.58778 -16.0097,-9.7152 V 4.7543 h 10.7991 v 17.3085 c 0,3.34982 2.47549,4.87985 5.21062,4.87985 2.73804,0 5.21062,-1.53004 5.21062,-4.87985 V 4.7543 h 10.7977 v 18.1359 c 0,7.12742 -7.30982,9.7152 -16.0083,9.7152 z"
   style="stroke-width:71.7557" />
    <path
   id="_137791360"
   fill="#343e8b"
   fill-rule="nonzero"
   d="m 221.163,11.8739 h 11.4138 c -0.59796,-6.14982 -9.25571,-7.98647 -15.9644,-7.98647 -6.70531,0 -15.4404,2.19331 -15.4404,8.90211 0,4.90211 4.79505,6.46996 8.15985,7.15142 2.38749,0.481455 6.36713,1.15985 8.35825,1.59825 2.76989,0.605818 4.20305,1.16902 4.20305,2.80175 0,1.74545 -1.61033,2.63825 -4.91636,2.63825 -3.13425,0 -5.00713,-0.974545 -5.52771,-3.18458 l -11.6307,0.0017 c 0.68291,7.29469 10.0294,8.8896 17.4058,8.8896 7.42211,0 16.2919,-1.76655 16.2919,-8.99593 0,-3.92509 -2.52858,-6.53702 -8.75156,-7.78167 -3.25687,-0.651055 -7.77265,-1.49949 -9.50865,-1.7984 -2.29964,-0.401018 -3.12058,-1.22967 -3.12058,-2.36029 0,-1.16553 1.11695,-2.3892395 4.34196,-2.3892395 2.72596,0 4.2,0.7956355 4.68567,2.5134495 z"
   style="stroke-width:71.7557" />
    <path
   id="_137708120"
   fill="#343e8b"
   fill-rule="nonzero"
   d="m 154.403,21.673 c 8.0352,0 10.0797,-5.11025 10.0797,-8.37542 0,-3.00524 -1.72873,-8.54327 -10.0689,-8.54327 h -21.601 l 10e-4,26.7769 h 10.6032 v -9.85818 h 10.9857 z m -10.9871,-5.8464 v -5.22269 h 7.07884 c 1.76393,0 3.27229,0.823855 3.27229,2.52553 0,1.49935 -0.86647,2.69716 -3.28567,2.69716 h -7.06545 z"
   style="stroke-width:71.7557" />
    <path
   id="_137709352"
   fill="#343e8b"
   fill-rule="nonzero"
   d="m 79.7261,5.40655 0.303855,-0.652218 h 11.1952 l -11.6492,17.7612 v 9.01571 h -10.5911 v -9.01571 l -11.6109,-17.7612 h 11.1556 l 0.311127,0.652218 5.048,8.8656 c 0.332509,0.569164 0.432727,0.569164 0.800145,0 l 5.03724,-8.8656 z"
   style="stroke-width:71.7557" />
    <path
   id="_137710928"
   fill="#343e8b"
   fill-rule="nonzero"
   d="m 113.585,31.5312 0.19738,-0.533091 5.68873,-13.2291 c 0.14706,-0.347636 0.49004,-0.254691 0.49469,0.05047 v 13.7117 h 9.13396 V 4.7542817 h -11.039 l -0.20305,0.576582 -6.80422,15.3600003 c -0.25091,0.582836 -0.48451,0.579927 -0.73498,0 l -6.80116,-15.3600003 -0.2035,-0.576582 H 92.273455 V 31.531182 h 9.138755 v -13.7117 c 0.002,-0.305164 0.34459,-0.398109 0.49353,-0.05047 l 5.68262,13.2291 0.20175,0.533091 h 5.79491 z"
   style="stroke-width:71.7557" />
    <path
   id="_137711944"
   fill="#343e8b"
   fill-rule="nonzero"
   d="m 38.5927,18.1443 c 0,8.99578 -7.80145,14.4125 -18.6839,14.4125 -10.8825,0 -18.6841,-5.41673 -18.6841,-14.4125 0,-9.00058 7.8016,-14.4148 18.6841,-14.4148 10.8825,0 18.6839,5.41425 18.6839,14.4148 z m -11.2332,0 c 0,-5.41716 -2.80335,-8.76102 -7.45076,-8.76102 -4.64916,0 -7.44916,3.34385 -7.44916,8.76102 0,5.41542 2.8,8.75753 7.44916,8.75753 4.64742,0 7.45076,-3.34211 7.45076,-8.75753 z"
   style="stroke-width:71.7557" />
    
    
   </g>
  </g></g>
</svg>
